
<svg width="40" height="40" viewBox="0 0 40 40" fill="none" xmlns="http://www.w3.org/2000/svg">
<g id="Message">
<g id="Iconly/Bulk/Message">
<g id="Group">
<path id="Fill-1" opacity="0.4" d="M36.6663 26.5663C36.6663 31.2163 32.933 34.983 28.283 34.9997H28.2663H11.7497C7.11634 34.9997 3.33301 31.2497 3.33301 26.5997V26.583C3.33301 26.583 3.34301 19.2063 3.35634 15.4963C3.35801 14.7997 4.15801 14.4097 4.70301 14.843C8.66301 17.9847 15.7447 23.713 15.833 23.788C17.0163 24.7363 18.5163 25.2713 20.0497 25.2713C21.583 25.2713 23.083 24.7363 24.2663 23.7697C24.3547 23.7113 31.278 18.1547 35.298 14.9613C35.8447 14.5263 36.648 14.9163 36.6497 15.6113C36.6663 19.293 36.6663 26.5663 36.6663 26.5663Z" fill="#3754DB"/>
<path id="Fill-4" d="M35.793 9.45569C34.3496 6.73569 31.5096 4.99902 28.383 4.99902H11.7496C8.62298 4.99902 5.78298 6.73569 4.33964 9.45569C4.01631 10.064 4.16964 10.8224 4.70798 11.2524L17.083 21.1507C17.9496 21.8507 18.9996 22.199 20.0496 22.199C20.0563 22.199 20.0613 22.199 20.0663 22.199C20.0713 22.199 20.078 22.199 20.083 22.199C21.133 22.199 22.183 21.8507 23.0496 21.1507L35.4246 11.2524C35.963 10.8224 36.1163 10.064 35.793 9.45569Z" fill="#3754DB"/>
</g>
</g>
</g>
</svg>
